<svg xmlns="http://www.w3.org/2000/svg" viewBox="0 0 238.04 167.7"><defs><style>.cls-1{fill:#cbb26b;}</style></defs><g id="Warstwa_2" data-name="Warstwa 2"><g id="Warstwa_2-2" data-name="Warstwa 2"><path class="cls-1" d="M118.91,124.35q-30.28,0-60.58,0c-4.1,0-4.27.59-4.28-4.14C54,98.81,62.24,81.27,78.93,68c13.22-10.53,28.48-15,45.37-13.73A65,65,0,0,1,182.67,106,75.23,75.23,0,0,1,184,121.64c0,2.55-.16,2.68-2.84,2.7-4.95,0-9.9,0-14.86,0Z"/><path class="cls-1" d="M118.66,146h-94a32.71,32.71,0,0,1-3.71-.09,5.32,5.32,0,0,1-.67-10.46,16.18,16.18,0,0,1,4.55-.3H214a13,13,0,0,1,4,.34,5.33,5.33,0,0,1,3.87,5.64,5.26,5.26,0,0,1-4.58,4.77,28.64,28.64,0,0,1-3.71.1Z"/><path class="cls-1" d="M119,167.69H46.11a24.14,24.14,0,0,1-3.71-.14,5.33,5.33,0,0,1-.58-10.42,13.24,13.24,0,0,1,4-.29h146.3a21.65,21.65,0,0,1,3.42.13,5.35,5.35,0,0,1-.25,10.64,32.67,32.67,0,0,1-3.43.08Z"/><path class="cls-1" d="M215,124.37c-5.71,0-11.42,0-17.12,0-2.73,0-2.93-.24-3-2.9-.05-1.9-.12-3.8-.15-5.7s.27-2.12,2.1-2.25c.57,0,1.14,0,1.71,0H230.2a22.57,22.57,0,0,1,2.85.12c3.19.44,5.06,2.55,5,5.54a5.18,5.18,0,0,1-5.36,5.16c-3.22.13-6.46,0-9.69.06Z"/><path class="cls-1" d="M113.66,23.27c0-5.32,0-10.64,0-16a19.17,19.17,0,0,1,.12-2.84A5.11,5.11,0,0,1,118.61,0a5.19,5.19,0,0,1,5.49,3.63A10.75,10.75,0,0,1,124.49,7V40.11a13.73,13.73,0,0,1-.06,1.7,1.55,1.55,0,0,1-1.71,1.52c-2.47,0-4.94,0-7.41,0a1.39,1.39,0,0,1-1.6-1.53c0-.76,0-1.52,0-2.28C113.65,34.11,113.66,28.69,113.66,23.27Z"/><path class="cls-1" d="M23.1,124.37H7.38a20.84,20.84,0,0,1-2.85-.13A5.2,5.2,0,0,1,0,119.43a5.13,5.13,0,0,1,3.89-5.58A12.46,12.46,0,0,1,7,113.51q16.58,0,33.15,0c.48,0,1,0,1.43,0,1.33,0,1.85.7,1.8,2-.08,1.9-.09,3.81-.12,5.71-.06,3-.12,3.1-3,3.13-3.14,0-6.28,0-9.43,0Z"/><path class="cls-1" d="M21.63,67.54a5.34,5.34,0,0,1,6.52-5.29,9,9,0,0,1,2.59,1.15l22.14,13a16.55,16.55,0,0,1,1.43.92,1.05,1.05,0,0,1,.46,1.46c-1.34,2.52-2.7,5-4.07,7.52a1,1,0,0,1-1.44.45c-.51-.26-1-.53-1.5-.82Q36.44,79.31,25.11,72.7C23.09,71.53,21.66,70,21.63,67.54Z"/><path class="cls-1" d="M216.49,67.46A5.58,5.58,0,0,1,214,72c-1.18.79-2.43,1.49-3.66,2.2q-9.6,5.61-19.21,11.21c-.65.39-1.32.74-2,1.13a1.16,1.16,0,0,1-1.88-.46c-1.26-2.35-2.52-4.69-3.82-7a1.24,1.24,0,0,1,.45-1.92l1.46-.89L207,63.6a9.19,9.19,0,0,1,3.41-1.4A5.39,5.39,0,0,1,216.49,67.46Z"/><path class="cls-1" d="M65.15,24.12a5.58,5.58,0,0,1,4.58,3.06q2.53,4.31,5,8.63c2.73,4.69,5.48,9.37,8.19,14.07,1,1.81,1,1.84-.7,2.88-1.86,1.15-3.73,2.29-5.58,3.46s-1.85,1.17-3-.79C70.32,49.68,67,43.92,63.63,38.15c-1.19-2.06-2.51-4.06-3.52-6.21A5.55,5.55,0,0,1,65.15,24.12Z"/><path class="cls-1" d="M172.89,24.11a5.63,5.63,0,0,1,5.17,7.63A16.36,16.36,0,0,1,176.85,34q-6,10.36-12,20.73l-.87,1.47c-.47.78-1,1-1.88.48-2.24-1.43-4.5-2.83-6.77-4.23a1.24,1.24,0,0,1-.55-1.9c.2-.32.36-.67.56-1q6.47-11.1,12.92-22.2A5.74,5.74,0,0,1,172.89,24.11Z"/></g></g></svg>