<svg id="visual" viewBox="0 0 900 600" width="900" height="600" xmlns="http://www.w3.org/2000/svg" xmlns:xlink="http://www.w3.org/1999/xlink" version="1.1"><path d="M0 466L37.5 479.8C75 493.7 150 521.3 225 514C300 506.7 375 464.3 450 459.3C525 454.3 600 486.7 675 486.3C750 486 825 453 862.5 436.5L900 420L900 601L862.5 601C825 601 750 601 675 601C600 601 525 601 450 601C375 601 300 601 225 601C150 601 75 601 37.5 601L0 601Z" fill="#f2f2f2"></path><path d="M0 503L37.5 500C75 497 150 491 225 500C300 509 375 533 450 542C525 551 600 545 675 542.2C750 539.3 825 539.7 862.5 539.8L900 540L900 601L862.5 601C825 601 750 601 675 601C600 601 525 601 450 601C375 601 300 601 225 601C150 601 75 601 37.5 601L0 601Z" fill="#bcc2d3"></path><path d="M0 554L37.5 545C75 536 150 518 225 522.2C300 526.3 375 552.7 450 554C525 555.3 600 531.7 675 526C750 520.3 825 532.7 862.5 538.8L900 545L900 601L862.5 601C825 601 750 601 675 601C600 601 525 601 450 601C375 601 300 601 225 601C150 601 75 601 37.5 601L0 601Z" fill="#8794b4"></path><path d="M0 539L37.5 544.8C75 550.7 150 562.3 225 568C300 573.7 375 573.3 450 573.2C525 573 600 573 675 566.2C750 559.3 825 545.7 862.5 538.8L900 532L900 601L862.5 601C825 601 750 601 675 601C600 601 525 601 450 601C375 601 300 601 225 601C150 601 75 601 37.5 601L0 601Z" fill="#516996"></path></svg>